<svg width="36" height="36" viewBox="0 0 36 36" fill="none" xmlns="http://www.w3.org/2000/svg">
<path d="M18 36C27.9411 36 36 27.9411 36 18C36 8.05887 27.9411 0 18 0C8.05887 0 0 8.05887 0 18C0 27.9411 8.05887 36 18 36Z" fill="#DD2E44"/>
<path d="M18 31.5C25.4558 31.5 31.5 25.4558 31.5 18C31.5 10.5442 25.4558 4.5 18 4.5C10.5442 4.5 4.5 10.5442 4.5 18C4.5 25.4558 10.5442 31.5 18 31.5Z" fill="white"/>
<path d="M18 28C23.5228 28 28 23.5228 28 18C28 12.4772 23.5228 8 18 8C12.4772 8 8 12.4772 8 18C8 23.5228 12.4772 28 18 28Z" fill="#DD2E44"/>
<path d="M18 24C21.3137 24 24 21.3137 24 18C24 14.6863 21.3137 12 18 12C14.6863 12 12 14.6863 12 18C12 21.3137 14.6863 24 18 24Z" fill="white"/>
<path d="M18 21C19.6569 21 21 19.6569 21 18C21 16.3431 19.6569 15 18 15C16.3431 15 15 16.3431 15 18C15 19.6569 16.3431 21 18 21Z" fill="#DD2E44"/>
<path opacity="0.2" d="M18.24 18.282L31.384 30.036C31.384 30.036 28.737 33.412 23.494 35.145L17.579 18.42L18.24 18.282Z" fill="black"/>
<path d="M18.294 19C18.039 19 17.785 18.903 17.59 18.708C17.201 18.319 17.201 17.69 17.59 17.301L18.153 16.738C18.542 16.349 19.171 16.349 19.561 16.738C19.949 17.127 19.949 17.756 19.561 18.145L18.997 18.708C18.803 18.903 18.549 19 18.294 19Z" fill="#FFAC33"/>
<path d="M24.016 6.981C23.613 9.06 24.016 11.672 24.016 11.672L31.07 4.284C31.361 2.83 30.542 0.352001 29.352 0.0460014C28.162 -0.259999 25.273 0.849001 24.016 6.981ZM29.019 11.984C26.94 12.387 24.328 11.984 24.328 11.984L31.716 4.93C33.17 4.639 35.648 5.458 35.954 6.648C36.26 7.838 35.151 10.727 29.019 11.984Z" fill="#55ACEE"/>
<path d="M32.798 4.485L21.176 17.587C20.814 17.949 19.503 18.469 18.666 17.633C17.83 16.797 18.247 15.553 18.609 15.19L31.815 3.501C31.815 3.501 32.491 2.866 32.974 3.349C33.457 3.832 32.798 4.485 32.798 4.485Z" fill="#3A87C2"/>
</svg>
