<svg width="36" height="36" viewBox="0 0 36 36" fill="none" xmlns="http://www.w3.org/2000/svg">
<path d="M36 18C36 27.941 27.941 36 18 36C8.06 36 0 27.941 0 18C0 8.06 8.06 0 18 0C27.941 0 36 8.06 36 18Z" fill="#FFCB4C"/>
<path d="M12.176 18.416C13.6379 18.416 14.823 16.7568 14.823 14.71C14.823 12.6632 13.6379 11.004 12.176 11.004C10.7141 11.004 9.529 12.6632 9.529 14.71C9.529 16.7568 10.7141 18.416 12.176 18.416Z" fill="#65471B"/>
<path d="M24.882 21.176C28.6828 21.176 31.764 18.0948 31.764 14.294C31.764 10.4932 28.6828 7.41199 24.882 7.41199C21.0812 7.41199 18 10.4932 18 14.294C18 18.0948 21.0812 21.176 24.882 21.176Z" fill="#F4F7F9"/>
<path d="M14.825 9.94601C14.503 9.94601 14.185 9.80001 13.977 9.52301C12.986 8.20201 11.949 7.49401 10.894 7.41901C9.504 7.32401 8.371 8.36601 8.16 8.57701C7.746 8.99101 7.076 8.99101 6.663 8.57701C6.249 8.16301 6.249 7.49301 6.663 7.08001C7.12 6.62301 8.792 5.14401 11.044 5.30701C12.739 5.42701 14.295 6.41801 15.671 8.25201C16.022 8.72001 15.927 9.38401 15.46 9.73401C15.268 9.87701 15.045 9.94601 14.825 9.94601Z" fill="#65471B"/>
<path d="M32.824 36C32.239 36 31.765 35.526 31.765 34.941V14.824C31.765 14.239 32.239 13.765 32.824 13.765C33.409 13.765 33.883 14.239 33.883 14.824V34.942C33.882 35.526 33.409 36 32.824 36Z" fill="#292F33"/>
<path d="M32.824 12.706C32.77 12.706 32.719 12.718 32.666 12.722C31.934 9.094 28.723 6.353 24.882 6.353C20.503 6.353 16.941 9.915 16.941 14.294C16.941 18.673 20.503 22.235 24.882 22.235C28.35 22.235 31.298 19.997 32.378 16.892C32.522 16.923 32.67 16.941 32.823 16.941C33.993 16.941 34.941 15.993 34.941 14.823C34.941 13.654 33.993 12.706 32.824 12.706ZM24.882 20.118C21.671 20.118 19.059 17.506 19.059 14.294C19.059 11.082 21.672 8.47 24.882 8.47C28.093 8.47 30.706 11.082 30.706 14.294C30.706 17.506 28.093 20.118 24.882 20.118Z" fill="#67757F"/>
<path d="M21.175 28.588C21.016 28.588 20.854 28.552 20.702 28.476C18.883 27.566 17.115 27.566 15.296 28.476C14.772 28.737 14.136 28.526 13.875 28.002C13.613 27.479 13.825 26.843 14.349 26.581C16.77 25.371 19.226 25.371 21.649 26.581C22.172 26.843 22.384 27.479 22.123 28.002C21.938 28.374 21.564 28.588 21.175 28.588Z" fill="#65471B"/>
<path d="M28.049 9.41101C27.137 8.81801 26.051 8.47101 24.882 8.47101C21.666 8.47101 19.058 11.078 19.058 14.295C19.058 15.464 19.406 16.55 19.998 17.462L28.049 9.41101ZM22.397 19.555C23.152 19.912 23.992 20.118 24.882 20.118C28.098 20.118 30.706 17.511 30.706 14.294C30.706 13.404 30.5 12.563 30.143 11.809L22.397 19.555Z" fill="#BDDDF4"/>
</svg>
