<svg width="36" height="35" viewBox="0 0 36 35" fill="none" xmlns="http://www.w3.org/2000/svg">
<path d="M18 34.3731C27.9411 34.3731 36 29.8959 36 24.3731C36 18.8502 27.9411 14.3731 18 14.3731C8.05887 14.3731 0 18.8502 0 24.3731C0 29.8959 8.05887 34.3731 18 34.3731Z" fill="#939598"/>
<path d="M18 32.3731C27.9411 32.3731 36 27.8959 36 22.3731C36 16.8502 27.9411 12.3731 18 12.3731C8.05887 12.3731 0 16.8502 0 22.3731C0 27.8959 8.05887 32.3731 18 32.3731Z" fill="#F1F2F2"/>
<path d="M18 29.5951C26.1738 29.5951 32.8 26.1875 32.8 21.9841C32.8 17.7806 26.1738 14.3731 18 14.3731C9.82618 14.3731 3.2 17.7806 3.2 21.9841C3.2 26.1875 9.82618 29.5951 18 29.5951Z" fill="white"/>
<path d="M8 27.3731C8 24.3291 8.417 20.1651 8.042 13.4981C8.643 12.1211 14.188 11.0261 14.667 9.70606C15.954 6.16006 13.458 3.79006 16 1.37306C18.05 -0.575935 21 -0.626935 22 2.37306C24 0.373065 28 1.37306 28 4.37306C32 3.37306 34 7.37306 31 10.3731C31 11.3731 30 19.3731 30 21.3731C30 23.3731 29.792 23.1651 24.792 24.1651C19.792 25.1651 8 27.3731 8 27.3731Z" fill="#E1E8ED"/>
<path d="M8 26.3731V14.3731C8 14.3731 29 7.37307 29 11.9151V22.3731L8 26.3731Z" fill="#FFAC33"/>
<path d="M8 25.3731V15.3731C8 15.3731 20.375 11.1651 28 11.3731V21.3731L8 25.3731Z" fill="#FFD983"/>
<path d="M8 20.3731V19.3731L29 15.3731V16.3731L8 20.3731Z" fill="#FFAC33"/>
<path d="M8 13.3731L17 4.37308C19 4.37308 25 5.37308 28 9.37308L8 13.3731Z" fill="#E1E8ED"/>
<path d="M30 9.37305C31 8.37305 31 4.37305 27 5.37305C27 4.37305 25 1.37305 22 3.37305C22 2.37305 17 1.37305 16 3.37305C26 6.37305 30 9.37305 30 9.37305Z" fill="white"/>
<path d="M17.958 9.83107C16.125 9.62307 13.541 8.74807 14.041 6.33107C14.541 3.91407 16.515 1.45007 17.791 0.78907C18.917 0.20607 20.117 0.63307 21 4.04007C21.583 6.29007 23.75 9.16507 19.333 9.79007C18.875 9.79007 17.958 9.83107 17.958 9.83107Z" fill="#DD2E44"/>
<path d="M18.375 4.41508C18.223 4.41508 18.073 4.34608 17.975 4.21508L17.475 3.54808C17.309 3.32708 17.354 3.01408 17.575 2.84808C17.796 2.68108 18.109 2.72608 18.275 2.94808L18.775 3.61508C18.941 3.83608 18.896 4.14908 18.675 4.31508C18.585 4.38208 18.48 4.41508 18.375 4.41508ZM15.959 7.91508C15.917 7.91508 15.875 7.91008 15.832 7.89908C15.565 7.82908 15.405 7.55608 15.475 7.28908L15.725 6.33108C15.794 6.06408 16.069 5.90508 16.335 5.97408C16.602 6.04408 16.762 6.31708 16.692 6.58408L16.442 7.54208C16.384 7.76608 16.181 7.91508 15.959 7.91508ZM20.333 7.99808C20.244 7.99808 20.153 7.97508 20.072 7.92508L19.322 7.46708C19.087 7.32308 19.012 7.01508 19.156 6.77908C19.302 6.54308 19.609 6.46908 19.844 6.61308L20.594 7.07108C20.829 7.21508 20.903 7.52308 20.76 7.75908C20.665 7.91308 20.501 7.99808 20.333 7.99808Z" fill="#F4ABBA"/>
</svg>
