<svg width="163" height="163" viewBox="0 0 163 163" fill="none" xmlns="http://www.w3.org/2000/svg">
<circle cx="81.5" cy="81.5" r="81.5" fill="#FFE7EA"/>
<path d="M70.7308 64.3058C70.5504 64.4863 70.4135 64.7038 70.2991 64.9422L70.2862 64.9293L52.2169 105.634L52.2346 105.651C51.8995 106.3 52.4602 107.622 53.6088 108.772C54.7575 109.92 56.0785 110.481 56.7278 110.146L56.7439 110.162L97.4481 92.0912L97.4352 92.0767C97.672 91.964 97.8895 91.827 98.0716 91.6434C100.588 89.1269 96.5073 80.9671 88.9596 73.4178C81.4087 65.8685 73.2489 61.7894 70.7308 64.3058Z" fill="#DD2E44"/>
<path d="M72.9444 71.5747L52.6712 104.61L52.2169 105.633L52.2346 105.651C51.8995 106.3 52.4602 107.621 53.6088 108.772C53.9826 109.145 54.3708 109.429 54.7511 109.669L79.3885 79.6298L72.9444 71.5747Z" fill="#EA596E"/>
<path d="M89.074 73.2921C96.5975 80.8188 100.775 88.8418 98.4003 91.2132C96.0272 93.5879 88.0043 89.4121 80.476 81.8886C72.9509 74.3618 68.7751 66.3357 71.1481 63.9627C73.5228 61.5896 81.5457 65.7654 89.074 73.2921Z" fill="#A0041E"/>
<path d="M81.9504 74.1669C81.6298 74.4263 81.2109 74.5616 80.7679 74.5133C79.3695 74.3619 78.1934 73.8753 77.3702 73.1069C76.4986 72.2933 76.0685 71.201 76.1861 70.1071C76.3923 68.1868 78.3191 66.4243 81.604 66.7788C82.8815 66.9157 83.4518 66.5049 83.4712 66.3083C83.4937 66.1134 83.0249 65.5898 81.7474 65.4513C80.349 65.2998 79.1729 64.8133 78.3481 64.0448C77.4765 63.2313 77.0448 62.139 77.164 61.0451C77.3734 59.1248 79.2986 57.3623 82.5803 57.7183C83.5114 57.8182 84.0028 57.6265 84.2106 57.5025C84.3766 57.401 84.4426 57.3043 84.4491 57.2479C84.4684 57.053 84.006 56.5294 82.7253 56.3909C81.8408 56.2942 81.1996 55.5016 81.2979 54.6155C81.3929 53.731 82.184 53.0915 83.0716 53.1881C86.3533 53.5409 87.8612 55.6723 87.6534 57.5943C87.444 59.5179 85.5188 61.2771 82.2339 60.9243C81.3027 60.8228 80.8162 61.0161 80.6068 61.1402C80.4408 61.24 80.3732 61.3383 80.3667 61.3931C80.3458 61.5896 80.8114 62.1116 82.0921 62.2502C85.3738 62.6046 86.8817 64.7344 86.6739 66.6563C86.4661 68.5767 84.5409 70.3391 81.2576 69.9831C80.3264 69.8832 79.8367 70.0765 79.6273 70.199C79.4597 70.3021 79.3953 70.3987 79.3888 70.4535C79.3679 70.6484 79.8335 71.172 81.1126 71.3106C81.9955 71.4072 82.6383 72.2015 82.54 73.0859C82.4949 73.5274 82.2709 73.9092 81.9504 74.1669Z" fill="#AA8DD8"/>
<path d="M101.397 89.0658C104.575 88.1685 106.768 89.5862 107.29 91.4469C107.812 93.3061 106.681 95.6598 103.504 96.5539C102.264 96.9019 101.891 97.4947 101.941 97.6832C101.996 97.8733 102.626 98.1859 103.863 97.8363C107.04 96.9421 109.233 98.3599 109.755 100.219C110.28 102.08 109.146 104.43 105.967 105.326C104.728 105.674 104.355 106.268 104.409 106.457C104.463 106.645 105.091 106.958 106.33 106.61C107.184 106.37 108.076 106.868 108.316 107.723C108.555 108.58 108.057 109.469 107.2 109.711C104.024 110.605 101.83 109.191 101.305 107.328C100.783 105.469 101.916 103.119 105.096 102.223C106.336 101.874 106.708 101.282 106.654 101.092C106.602 100.904 105.974 100.59 104.736 100.937C101.556 101.833 99.3653 100.419 98.8417 98.5548C98.3181 96.6957 99.4507 94.3452 102.629 93.4478C103.866 93.1015 104.239 92.5054 104.187 92.3185C104.132 92.1284 103.506 91.8159 102.267 92.1638C101.41 92.4055 100.522 91.9061 100.28 91.0506C100.04 90.1968 100.54 89.3075 101.397 89.0658Z" fill="#77B255"/>
<path d="M89.0566 84.721C88.583 84.721 88.1158 84.5131 87.7968 84.1168C87.241 83.4209 87.3554 82.4075 88.0481 81.8517C88.3993 81.5698 96.7766 74.9904 108.616 76.6836C109.497 76.8092 110.11 77.6244 109.984 78.5056C109.858 79.3852 109.049 80.0039 108.16 79.8718C97.6998 78.3864 90.1376 84.3085 90.0635 84.3682C89.7638 84.6066 89.4094 84.721 89.0566 84.721Z" fill="#AA8DD8"/>
<path d="M61.271 78.019C61.118 78.019 60.9617 77.9964 60.8071 77.9513C59.9548 77.6951 59.4715 76.7978 59.7277 75.9456C61.553 69.8672 63.2075 60.1672 61.1744 57.6378C60.9472 57.3511 60.6041 57.0691 59.8179 57.1288C58.3067 57.2448 58.4501 60.433 58.4517 60.4652C58.5194 61.3529 57.8524 62.1262 56.9664 62.1922C56.0658 62.247 55.3054 61.5929 55.2393 60.7052C55.0734 58.4836 55.7645 54.2047 59.5762 53.9164C61.2775 53.7875 62.6903 54.3787 63.6876 55.6192C67.5073 60.3734 63.6296 74.1557 62.8144 76.8719C62.605 77.5695 61.9638 78.019 61.271 78.019Z" fill="#77B255"/>
<path d="M93.0824 69.9637C94.417 69.9637 95.499 68.8817 95.499 67.5471C95.499 66.2125 94.417 65.1306 93.0824 65.1306C91.7478 65.1306 90.6659 66.2125 90.6659 67.5471C90.6659 68.8817 91.7478 69.9637 93.0824 69.9637Z" fill="#5C913B"/>
<path d="M55.2233 84.4629C57.0028 84.4629 58.4453 83.0203 58.4453 81.2409C58.4453 79.4614 57.0028 78.0188 55.2233 78.0188C53.4438 78.0188 52.0012 79.4614 52.0012 81.2409C52.0012 83.0203 53.4438 84.4629 55.2233 84.4629Z" fill="#9266CC"/>
<path d="M104.36 86.074C105.694 86.074 106.776 84.992 106.776 83.6574C106.776 82.3228 105.694 81.2409 104.36 81.2409C103.025 81.2409 101.943 82.3228 101.943 83.6574C101.943 84.992 103.025 86.074 104.36 86.074Z" fill="#5C913B"/>
<path d="M89.8604 105.406C91.195 105.406 92.2769 104.324 92.2769 102.99C92.2769 101.655 91.195 100.573 89.8604 100.573C88.5258 100.573 87.4438 101.655 87.4438 102.99C87.4438 104.324 88.5258 105.406 89.8604 105.406Z" fill="#5C913B"/>
<path d="M97.11 61.9085C98.8895 61.9085 100.332 60.466 100.332 58.6865C100.332 56.907 98.8895 55.4644 97.11 55.4644C95.3305 55.4644 93.8879 56.907 93.8879 58.6865C93.8879 60.466 95.3305 61.9085 97.11 61.9085Z" fill="#FFCC4D"/>
<path d="M104.36 68.3526C105.694 68.3526 106.776 67.2707 106.776 65.9361C106.776 64.6015 105.694 63.5196 104.36 63.5196C103.025 63.5196 101.943 64.6015 101.943 65.9361C101.943 67.2707 103.025 68.3526 104.36 68.3526Z" fill="#FFCC4D"/>
<path d="M99.5265 74.7968C100.861 74.7968 101.943 73.7148 101.943 72.3802C101.943 71.0456 100.861 69.9637 99.5265 69.9637C98.1919 69.9637 97.11 71.0456 97.11 72.3802C97.11 73.7148 98.1919 74.7968 99.5265 74.7968Z" fill="#FFCC4D"/>
<path d="M64.0839 92.518C65.4185 92.518 66.5005 91.4361 66.5005 90.1015C66.5005 88.7669 65.4185 87.685 64.0839 87.685C62.7493 87.685 61.6674 88.7669 61.6674 90.1015C61.6674 91.4361 62.7493 92.518 64.0839 92.518Z" fill="#FFCC4D"/>
</svg>
