<svg width="618" height="994" viewBox="0 0 618 994" fill="none" xmlns="http://www.w3.org/2000/svg">
<path d="M233 143.5L233.579 144.315L233 143.5ZM176.052 82L176.835 82.6219L176.052 82ZM388.5 297L388.064 296.1L388.5 297ZM459.5 386.5L459.782 385.541L459.5 386.5ZM596 363.5L596.774 364.133L596 363.5ZM534.5 307L533.889 306.209L534.5 307ZM563 432.5L562.805 433.481L563 432.5ZM344.5 574L345.477 574.215L344.5 574ZM433.5 633.5L434.369 633.994L433.5 633.5ZM176.052 549.457L176.676 550.238L176.052 549.457ZM185 762L184.624 761.073L185 762ZM279.5 985L268.654 981.037L270.645 992.411L279.5 985ZM37.2377 0.806684C12.8497 124.583 144.237 207.795 233.579 144.315L232.421 142.685C144.734 204.989 15.1179 123.417 39.2 1.19332L37.2377 0.806684ZM233.579 144.315C248.169 133.949 254.83 121.146 255.779 108.645C256.726 96.1701 251.977 84.1059 243.956 75.1977C235.936 66.2891 224.591 60.4815 212.291 60.6063C199.966 60.7314 186.838 66.811 175.269 81.3781L176.835 82.6219C188.099 68.439 200.693 62.7242 212.311 62.6062C223.955 62.4881 234.775 67.9888 242.47 76.5359C250.166 85.0832 254.686 96.6218 253.785 108.493C252.885 120.337 246.581 132.623 232.421 142.685L233.579 144.315ZM175.269 81.3781C137.359 129.111 147.549 204.279 188.656 256.886C209.237 283.225 237.617 303.993 271.724 312.912C305.843 321.835 345.618 318.882 388.936 297.9L388.064 296.1C345.132 316.895 305.845 319.768 272.23 310.977C238.605 302.184 210.582 281.698 190.232 255.655C149.477 203.499 139.693 129.389 176.835 82.6219L175.269 81.3781ZM388.936 297.9C414.921 285.313 429.593 269.967 436.146 254.681C442.704 239.384 441.083 224.256 434.683 212.257C428.294 200.276 417.128 191.393 404.568 188.578C391.967 185.755 378.045 189.061 366.279 201.307L367.721 202.693C379.014 190.939 392.228 187.863 404.13 190.53C416.074 193.206 426.779 201.686 432.918 213.198C439.048 224.691 440.614 239.184 434.308 253.893C427.997 268.613 413.754 283.656 388.064 296.1L388.936 297.9ZM366.279 201.307C342.796 225.749 343.852 265.865 361.703 302.889C379.58 339.965 414.44 374.308 459.218 387.459L459.782 385.541C415.622 372.571 381.173 338.664 363.505 302.02C345.811 265.324 345.087 226.251 367.721 202.693L366.279 201.307ZM459.218 387.459C531.002 408.543 577.641 387.519 596.774 364.133L595.226 362.867C576.724 385.481 530.998 406.457 459.782 385.541L459.218 387.459ZM596.774 364.133C612.858 344.475 609.556 320.41 595.977 306.063C589.186 298.888 579.824 294.14 569.051 293.595C558.274 293.05 546.17 296.713 533.889 306.209L535.112 307.791C547.081 298.537 558.726 295.075 568.95 295.592C579.177 296.11 588.065 300.612 594.524 307.437C607.445 321.09 610.642 344.025 595.226 362.867L596.774 364.133ZM533.889 306.209C495.978 335.521 484.826 385.833 491.553 430.866C494.919 453.399 502.767 474.683 514.046 491.451C525.321 508.215 540.07 520.527 557.25 524.968L557.751 523.032C541.181 518.748 526.798 506.827 515.705 490.335C504.615 473.847 496.86 452.853 493.531 430.571C486.869 385.974 497.968 336.511 535.112 307.791L533.889 306.209ZM557.25 524.968C574.352 529.389 588.46 526.839 598.697 520.152C608.925 513.47 615.194 502.719 616.726 490.922C619.8 467.255 603.847 439.603 563.195 431.519L562.805 433.481C602.611 441.397 617.658 468.22 614.743 490.665C613.28 501.924 607.307 512.138 597.604 518.477C587.91 524.81 574.398 527.335 557.751 523.032L557.25 524.968ZM563.195 431.519C474.758 413.932 368.176 461.662 343.523 573.785L345.477 574.215C369.856 463.338 475.242 416.068 562.805 433.481L563.195 431.519ZM343.523 573.785C335.252 611.403 350.842 638.741 372.147 650.542C393.43 662.331 420.414 658.549 434.369 633.994L432.631 633.006C419.307 656.451 393.607 660.143 373.117 648.793C352.65 637.456 337.379 611.043 345.477 574.215L343.523 573.785ZM434.369 633.994C446.518 612.618 444.232 590.149 432.052 570.172C419.893 550.231 397.88 532.753 370.476 521.122C315.657 497.856 238.954 497.854 175.427 548.676L176.676 550.238C239.545 499.942 315.448 499.94 369.695 522.964C396.824 534.478 418.458 551.718 430.344 571.214C442.209 590.673 444.364 612.36 432.631 633.006L434.369 633.994ZM175.427 548.676C125.113 588.928 105.567 651.19 109.497 699.007C111.461 722.908 119.304 743.345 132.268 755.601C145.305 767.927 163.382 771.843 185.376 762.927L184.624 761.073C163.268 769.731 146.044 765.873 133.642 754.148C121.167 742.354 113.432 722.468 111.49 698.844C107.608 651.613 126.939 590.029 176.676 550.238L175.427 548.676ZM185.376 762.927C199.676 757.129 207.382 743.939 208.969 728.746C210.555 713.564 206.059 696.282 195.877 682.008C185.684 667.717 169.775 656.418 148.536 653.26C127.305 650.102 100.854 655.091 69.5721 673.164L70.5726 674.896C101.577 656.983 127.572 652.164 148.241 655.238C168.901 658.31 184.345 669.284 194.249 683.169C204.165 697.071 208.512 713.87 206.98 728.538C205.449 743.194 198.074 755.621 184.624 761.073L185.376 762.927ZM69.5721 673.164C7.36577 709.103 -16.2056 799.985 12.6427 875.625C27.0856 913.495 54.6746 947.599 97.1692 969.168C139.659 990.735 196.974 999.732 270.82 987.535L270.494 985.561C196.965 997.706 140.101 988.717 98.0744 967.385C56.053 946.056 28.7897 912.35 14.5114 874.913C-14.0824 799.939 9.42921 710.221 70.5726 674.896L69.5721 673.164Z" fill="#434B60"/>
</svg>
